<?xml version="1.0" encoding="iso-8859-1"?>
<!-- Generator: Adobe Illustrator 18.0.0, SVG Export Plug-In . SVG Version: 6.00 Build 0)  -->
<!DOCTYPE svg PUBLIC "-//W3C//DTD SVG 1.1//EN" "http://www.w3.org/Graphics/SVG/1.1/DTD/svg11.dtd">
<svg version="1.1" id="Capa_1" xmlns="http://www.w3.org/2000/svg" xmlns:xlink="http://www.w3.org/1999/xlink" x="0px" y="0px"
	 viewBox="0 0 324.998 324.998" style="enable-background:new 0 0 324.998 324.998;" xml:space="preserve">
<g>
	<path d="M162.5,113.997c-37.016,0-67.131,30.114-67.131,67.13c0,37.016,30.115,67.13,67.131,67.13
		c37.015,0,67.129-30.114,67.129-67.13C229.629,144.111,199.515,113.997,162.5,113.997z M162.5,236.257
		c-30.399,0-55.131-24.731-55.131-55.13c0-30.398,24.731-55.13,55.131-55.13c30.398,0,55.129,24.731,55.129,55.13
		C217.629,211.525,192.898,236.257,162.5,236.257z"/>
	<path d="M287.566,110.029h-35.564c-3.313,0-6,2.687-6,6v22.343c0,3.314,2.687,6,6,6h35.564c3.314,0,6-2.686,6-6v-22.343
		C293.566,112.716,290.88,110.029,287.566,110.029z M281.566,132.372h-23.564v-10.343h23.564V132.372z"/>
	<path d="M308.754,80.548h-82.347l-16.569-33.892c-1.007-2.059-3.099-3.364-5.391-3.364h-83.898c-2.292,0-4.384,1.306-5.391,3.365
		L98.591,80.548H16.242C7.286,80.548,0,87.647,0,96.374v169.507c0,8.727,7.286,15.826,16.242,15.826h292.512
		c8.957,0,16.244-7.1,16.244-15.826V96.374C324.998,87.647,317.711,80.548,308.754,80.548z M312.998,265.881
		c0,2.109-1.904,3.826-4.244,3.826H16.242c-2.339,0-4.242-1.717-4.242-3.826V96.374c0-2.109,1.903-3.826,4.242-3.826h86.094
		c2.292,0,4.384-1.306,5.391-3.365l16.567-33.892h76.408l16.569,33.893c1.007,2.059,3.099,3.364,5.391,3.364h86.092
		c2.34,0,4.244,1.717,4.244,3.826V265.881z"/>
</g>
<g>
</g>
<g>
</g>
<g>
</g>
<g>
</g>
<g>
</g>
<g>
</g>
<g>
</g>
<g>
</g>
<g>
</g>
<g>
</g>
<g>
</g>
<g>
</g>
<g>
</g>
<g>
</g>
<g>
</g>
</svg>
