<?xml version="1.0" encoding="iso-8859-1"?>
<!-- Generator: Adobe Illustrator 19.0.0, SVG Export Plug-In . SVG Version: 6.00 Build 0)  -->
<svg version="1.1" id="Layer_1" xmlns="http://www.w3.org/2000/svg" xmlns:xlink="http://www.w3.org/1999/xlink" x="0px" y="0px"
	 viewBox="0 0 512 512" style="enable-background:new 0 0 512 512;" xml:space="preserve">
<g>
	<g>
		<path d="M509.607,173.926L338.073,2.393C336.542,0.861,334.463,0,332.297,0s-4.245,0.861-5.777,2.393L87.126,241.787
			c-3.191,3.191-3.191,8.364,0,11.554l1.926,1.926L2.393,341.926c-3.191,3.191-3.191,8.364,0,11.554l156.127,156.127
			c1.595,1.595,3.686,2.393,5.777,2.393c2.09,0,4.182-0.797,5.777-2.393l86.659-86.659l1.926,1.926
			c1.595,1.595,3.686,2.393,5.777,2.393c2.09,0,4.182-0.797,5.777-2.393L509.607,185.48c1.533-1.532,2.393-3.61,2.393-5.777
			S511.139,175.458,509.607,173.926z M332.297,19.725l34.664,34.663l-227.84,227.84l-32.732-32.732
			c-0.011-0.011-1.931-1.931-1.931-1.931L332.297,19.725z M164.297,492.276L19.725,347.702l80.881-80.881l144.572,144.572
			L164.297,492.276z M264.436,407.543l-1.921-1.921c-0.011-0.011-32.743-32.743-32.743-32.743l40.44-40.44
			c3.191-3.191,3.191-8.364,0-11.554c-3.191-3.191-8.364-3.191-11.554,0l-40.44,40.44l-67.544-67.544l227.84-227.84l67.544,67.544
			l-164.292,164.29c-3.191,3.191-3.191,8.364,0,11.554c1.595,1.596,3.686,2.393,5.777,2.393c2.091,0,4.182-0.797,5.777-2.393
			l164.291-164.29l34.664,34.663L264.436,407.543z"/>
	</g>
</g>
<g>
</g>
<g>
</g>
<g>
</g>
<g>
</g>
<g>
</g>
<g>
</g>
<g>
</g>
<g>
</g>
<g>
</g>
<g>
</g>
<g>
</g>
<g>
</g>
<g>
</g>
<g>
</g>
<g>
</g>
</svg>
