<?xml version="1.0" encoding="iso-8859-1"?>
<!-- Generator: Adobe Illustrator 17.1.0, SVG Export Plug-In . SVG Version: 6.00 Build 0)  -->
<!DOCTYPE svg PUBLIC "-//W3C//DTD SVG 1.1//EN" "http://www.w3.org/Graphics/SVG/1.1/DTD/svg11.dtd">
<svg version="1.1" id="Capa_1" xmlns="http://www.w3.org/2000/svg" xmlns:xlink="http://www.w3.org/1999/xlink" x="0px" y="0px"
	 viewBox="0 0 511 511" style="enable-background:new 0 0 511 511;" xml:space="preserve">
<g>
	<path d="M455.5,0h-400C24.897,0,0,24.897,0,55.5v400C0,486.103,24.897,511,55.5,511h400c30.603,0,55.5-24.897,55.5-55.5v-400
		C511,24.897,486.103,0,455.5,0z M496,55.5V120H391V15h64.5C477.832,15,496,33.168,496,55.5z M376,120H263V15h113V120z M55.5,15H120
		v48.502c0,4.142,3.358,7.5,7.5,7.5s7.5-3.358,7.5-7.5V15h113v105h-56.502c-4.142,0-7.5,3.358-7.5,7.5s3.358,7.5,7.5,7.5H248v113
		h-16.5c-4.142,0-7.5,3.358-7.5,7.5s3.358,7.5,7.5,7.5H248v56.502c0,4.142,3.358,7.5,7.5,7.5s7.5-3.358,7.5-7.5V263h56.503
		c4.142,0,7.5-3.358,7.5-7.5s-3.358-7.5-7.5-7.5H263V135h113v56.498c0,4.142,3.358,7.5,7.5,7.5s7.5-3.358,7.5-7.5V135h105v113
		h-48.501c-4.142,0-7.5,3.358-7.5,7.5s3.358,7.5,7.5,7.5H496v94.395l-10.36-10.365c-1.42-1.42-3.31-2.2-5.31-2.2s-3.89,0.78-5.3,2.2
		c-1.42,1.41-2.2,3.3-2.2,5.3s0.78,3.89,2.2,5.3L493.4,376H391v-56.5c0-4.142-3.358-7.5-7.5-7.5s-7.5,3.358-7.5,7.5V376h-56.498
		c-4.142,0-7.5,3.358-7.5,7.5s3.358,7.5,7.5,7.5H376v105H263v-48.502c0-4.142-3.358-7.5-7.5-7.5s-7.5,3.358-7.5,7.5V496H135V391
		h56.501c4.142,0,7.5-3.358,7.5-7.5s-3.358-7.5-7.5-7.5H135V263h24.5c4.142,0,7.5-3.358,7.5-7.5s-3.358-7.5-7.5-7.5H135v-56.502
		c0-4.142-3.358-7.5-7.5-7.5s-7.5,3.358-7.5,7.5V248H17.6l19.37-19.37c1.42-1.41,2.2-3.3,2.2-5.3s-0.78-3.88-2.2-5.3
		s-3.3-2.2-5.3-2.2c-2.01,0-3.89,0.78-5.31,2.2L15,229.394V135h48.502c4.142,0,7.5-3.358,7.5-7.5s-3.358-7.5-7.5-7.5H15V55.5
		C15,33.168,33.168,15,55.5,15z M15,263h105v113H15V263z M15,455.5V391h105v105H55.5C33.168,496,15,477.832,15,455.5z M455.5,496
		H391V391h105v64.5C496,477.832,477.832,496,455.5,496z"/>
	<path d="M50.45,194.03c-0.26,0.21-0.52,0.43-0.75,0.66c-2.92,2.93-2.92,7.69,0,10.61c1.42,1.42,3.3,2.2,5.3,2.2
		c2.01,0,3.89-0.78,5.31-2.2c0.23-0.24,0.46-0.49,0.66-0.75c0.26-0.21,0.51-0.43,0.75-0.66l24.75-24.75c2.92-2.93,2.92-7.68,0-10.61
		c-1.42-1.42-3.3-2.2-5.31-2.2c-2,0-3.88,0.78-5.3,2.2l-24.75,24.75C50.88,193.52,50.65,193.77,50.45,194.03z"/>
	<path d="M99.2,155.8c0.767,0.772,1.678,1.347,2.669,1.719c6.905,5.904,15.855,9.482,25.631,9.482
		c5.378,0,10.507-1.084,15.184-3.039c0.923-0.084,1.821-0.332,2.666-0.751c0.875-0.438,1.623-1.028,2.238-1.718
		C159.197,154.605,167,141.949,167,127.5c0-21.78-17.72-39.5-39.5-39.5S88,105.72,88,127.5c0,9.776,3.577,18.726,9.481,25.631
		C97.853,154.122,98.428,155.033,99.2,155.8z M127.5,103c13.509,0,24.5,10.991,24.5,24.5S141.009,152,127.5,152
		S103,141.009,103,127.5S113.991,103,127.5,103z"/>
	<path d="M212.66,314.59l15.65,31.3c0.15,0.3,0.32,0.59,0.51,0.87c0.1,0.31,0.24,0.62,0.39,0.92c0.794,1.588,2.085,2.8,3.633,3.494
		C222.668,358.326,216,370.146,216,383.5c0,21.78,17.72,39.5,39.5,39.5s39.5-17.72,39.5-39.5c0-8.936-2.987-17.186-8.009-23.811
		c0.002-0.063,0.009-0.125,0.009-0.189c0-2-0.78-3.89-2.2-5.3c-1.41-1.42-3.3-2.2-5.3-2.2c-0.063,0-0.125,0.008-0.189,0.009
		C272.686,346.987,264.436,344,255.5,344c-4.282,0-8.402,0.694-12.266,1.96c0.376-1.679,0.17-3.42-0.614-4.98
		c-0.15-0.3-0.32-0.6-0.5-0.87c-0.11-0.32-0.24-0.63-0.39-0.92l-15.65-31.31c-1.28-2.56-3.86-4.15-6.72-4.15
		c-1.17,0-2.29,0.27-3.35,0.8C212.31,306.38,210.81,310.89,212.66,314.59z M280,383.5c0,13.509-10.991,24.5-24.5,24.5
		S231,397.009,231,383.5s10.991-24.5,24.5-24.5S280,369.991,280,383.5z"/>
	<path d="M181.36,251.98l15.65,31.31c0.15,0.3,0.32,0.59,0.51,0.86c0.1,0.31,0.23,0.62,0.38,0.92c1.28,2.56,3.85,4.15,6.71,4.15
		c1.17,0,2.3-0.27,3.35-0.79c1.8-0.9,3.13-2.44,3.76-4.34c0.64-1.9,0.49-3.93-0.4-5.72c-0.15-0.3-0.32-0.6-0.51-0.87
		c-0.11-0.31-0.24-0.63-0.39-0.92l-15.65-31.31c-1.28-2.56-3.85-4.15-6.71-4.15c-1.17,0-2.3,0.27-3.35,0.8
		c-1.79,0.89-3.13,2.43-3.76,4.33C180.31,248.15,180.46,250.19,181.36,251.98z"/>
	<path d="M156.75,178.51c-1.17,0-2.29,0.27-3.35,0.8c-1.79,0.89-3.12,2.43-3.76,4.33c-0.63,1.9-0.49,3.94,0.41,5.73l15.65,31.31
		c0.15,0.3,0.32,0.59,0.51,0.86c0.11,0.32,0.24,0.63,0.39,0.92c1.28,2.56,3.85,4.15,6.71,4.15c1.17,0,2.3-0.27,3.35-0.79
		c1.79-0.9,3.13-2.44,3.76-4.34s0.49-3.93-0.41-5.73c-0.15-0.3-0.32-0.59-0.51-0.86c-0.1-0.32-0.23-0.63-0.38-0.92l-15.65-31.31
		C162.19,180.1,159.61,178.51,156.75,178.51z"/>
	<path d="M347.03,281.37c-1.42,1.41-2.2,3.29-2.2,5.3c0,2,0.78,3.89,2.2,5.3c1.41,1.42,3.3,2.2,5.3,2.2s3.89-0.78,5.3-2.2
		l3.756-3.756C367.7,292.495,375.313,295,383.5,295c8.936,0,17.186-2.987,23.811-8.009c0.063,0.002,0.125,0.009,0.189,0.009
		c2,0,3.89-0.78,5.3-2.2c1.42-1.41,2.2-3.3,2.2-5.3c0-0.063-0.008-0.125-0.009-0.189c5.022-6.626,8.009-14.875,8.009-23.811
		c0-21.78-17.72-39.5-39.5-39.5S344,233.72,344,255.5c0,8.187,2.505,15.799,6.786,22.113L347.03,281.37z M383.5,231
		c13.509,0,24.5,10.991,24.5,24.5S397.009,280,383.5,280S359,269.009,359,255.5S369.991,231,383.5,231z"/>
	<path d="M302.83,343.67c2.01,0,3.89-0.79,5.31-2.2l24.75-24.75c0.23-0.24,0.46-0.49,0.66-0.76c0.26-0.2,0.51-0.42,0.75-0.65
		c1.42-1.42,2.2-3.3,2.2-5.31c0-2-0.78-3.88-2.2-5.3s-3.3-2.2-5.3-2.2c-2.01,0-3.89,0.78-5.31,2.2c-0.23,0.24-0.46,0.49-0.66,0.76
		c-0.26,0.2-0.52,0.42-0.75,0.65l-24.75,24.75c-1.42,1.42-2.2,3.3-2.2,5.31c0,2,0.78,3.88,2.2,5.3
		C298.95,342.88,300.83,343.67,302.83,343.67z"/>
	<path d="M450.28,332.89c0.24,0.23,0.49,0.45,0.76,0.66c0.2,0.26,0.42,0.51,0.65,0.75c1.42,1.42,3.3,2.2,5.31,2.2
		c2,0,3.88-0.78,5.3-2.2c2.92-2.92,2.92-7.68,0-10.61c-0.23-0.23-0.49-0.45-0.75-0.66c-0.21-0.26-0.43-0.51-0.66-0.75l-24.75-24.75
		c-1.42-1.42-3.3-2.2-5.31-2.2c-2,0-3.88,0.78-5.3,2.2c-1.41,1.42-2.2,3.3-2.2,5.3c0,2.01,0.79,3.89,2.2,5.31L450.28,332.89z"/>
</g>
<g>
</g>
<g>
</g>
<g>
</g>
<g>
</g>
<g>
</g>
<g>
</g>
<g>
</g>
<g>
</g>
<g>
</g>
<g>
</g>
<g>
</g>
<g>
</g>
<g>
</g>
<g>
</g>
<g>
</g>
</svg>
