<?xml version="1.0" encoding="iso-8859-1"?>
<!-- Generator: Adobe Illustrator 17.1.0, SVG Export Plug-In . SVG Version: 6.00 Build 0)  -->
<!DOCTYPE svg PUBLIC "-//W3C//DTD SVG 1.1//EN" "http://www.w3.org/Graphics/SVG/1.1/DTD/svg11.dtd">
<svg version="1.1" id="Capa_1" xmlns="http://www.w3.org/2000/svg" xmlns:xlink="http://www.w3.org/1999/xlink" x="0px" y="0px"
	 viewBox="0 0 511 511" style="enable-background:new 0 0 511 511;" xml:space="preserve">
<g>
	<path d="M455.5,0h-400C24.897,0,0,24.897,0,55.5v400C0,486.103,24.897,511,55.5,511h400c30.603,0,55.5-24.897,55.5-55.5v-400
		C511,24.897,486.103,0,455.5,0z M496,455.5c0,22.332-18.168,40.5-40.5,40.5h-400C33.168,496,15,477.832,15,455.5v-72.631
		c2.646-0.291,4.972-1.954,6.06-4.43c0.47-1.09,0.99-2.19,1.53-3.28c4.49-8.99,10.69-16.83,18.43-23.3c0.47-0.4,0.89-0.85,1.25-1.34
		c0.56-0.24,1.09-0.54,1.58-0.92c3.3-2.49,3.96-7.2,1.47-10.5c-1.43-1.89-3.62-2.98-5.99-2.98c-1.64,0-3.2,0.52-4.52,1.51
		c-0.59,0.45-1.11,0.98-1.54,1.57c-0.68,0.29-1.31,0.68-1.88,1.15c-6.348,5.313-11.819,11.412-16.39,18.176V55.5
		C15,33.168,33.168,15,55.5,15h400c22.332,0,40.5,18.168,40.5,40.5V455.5z"/>
	<path d="M98.197,148.803c1.464,1.464,3.384,2.197,5.303,2.197s3.839-0.732,5.303-2.197l18.697-18.697l18.697,18.697
		c1.464,1.464,3.384,2.197,5.303,2.197s3.839-0.732,5.303-2.197c2.929-2.929,2.929-7.678,0-10.606L138.106,119.5l18.697-18.697
		c2.929-2.929,2.929-7.678,0-10.606c-2.929-2.929-7.678-2.929-10.606,0L127.5,108.894l-18.697-18.697
		c-2.929-2.929-7.678-2.929-10.606,0c-2.929,2.929-2.929,7.678,0,10.606l18.697,18.697l-18.697,18.697
		C95.268,141.125,95.268,145.875,98.197,148.803z"/>
	<path d="M284.803,386.197c-2.929-2.929-7.678-2.929-10.606,0L255.5,404.894l-18.697-18.697c-2.929-2.929-7.678-2.929-10.606,0
		c-2.929,2.929-2.929,7.678,0,10.606l18.697,18.697l-18.697,18.697c-2.929,2.929-2.929,7.678,0,10.606
		c1.464,1.464,3.384,2.197,5.303,2.197s3.839-0.732,5.303-2.197l18.697-18.697l18.697,18.697c1.464,1.464,3.384,2.197,5.303,2.197
		s3.839-0.732,5.303-2.197c2.929-2.929,2.929-7.678,0-10.606L266.106,415.5l18.697-18.697
		C287.732,393.875,287.732,389.125,284.803,386.197z"/>
	<path d="M394.197,276.803c1.464,1.464,3.384,2.197,5.303,2.197s3.839-0.732,5.303-2.197c2.929-2.929,2.929-7.678,0-10.606
		L386.106,247.5l18.697-18.697c2.929-2.929,2.929-7.678,0-10.606c-2.929-2.929-7.678-2.929-10.606,0L375.5,236.894l-18.697-18.697
		c-2.929-2.929-7.678-2.929-10.606,0c-2.929,2.929-2.929,7.678,0,10.606l18.697,18.697l-18.697,18.697
		c-2.929,2.929-2.929,7.678,0,10.606c1.464,1.464,3.384,2.197,5.303,2.197s3.839-0.732,5.303-2.197l18.697-18.697L394.197,276.803z"
		/>
	<path d="M319,103.5c0-8.547-6.953-15.5-15.5-15.5S288,94.953,288,103.5s6.953,15.5,15.5,15.5S319,112.047,319,103.5z"/>
	<path d="M109.79,320c-0.68,0-1.35,0.09-2,0.27c-0.65-0.18-1.32-0.27-2-0.27H87.5c-5.36,0-10.74,0.49-15.98,1.46
		c-1.44,0.26-2.88,0.57-4.28,0.9c-1.95,0.46-3.61,1.66-4.66,3.36c-1.05,1.71-1.37,3.72-0.91,5.67c0.8,3.4,3.8,5.77,7.29,5.77
		c0.58,0,1.17-0.07,1.73-0.2c0,0,0,0,0.01-0.01c1.19-0.28,2.38-0.53,3.54-0.74c4.34-0.8,8.8-1.21,13.26-1.21h18.29
		c0.68,0,1.35-0.09,2-0.27c0.65,0.18,1.32,0.27,2,0.27c4.14,0,7.5-3.36,7.5-7.5C117.29,323.36,113.93,320,109.79,320z"/>
	<path d="M255.79,334.73c0.65,0.18,1.32,0.27,2,0.27c4.14,0,7.5-3.36,7.5-7.5c0-4.14-3.36-7.5-7.5-7.5c-0.68,0-1.35,0.09-2,0.27
		c-0.65-0.18-1.32-0.27-2-0.27h-37c-4.13,0-7.5,3.36-7.5,7.5c0,4.14,3.37,7.5,7.5,7.5h37C254.47,335,255.14,334.91,255.79,334.73z"
		/>
	<path d="M183.79,320c-0.68,0-1.35,0.09-2,0.27c-0.65-0.18-1.32-0.27-2-0.27h-37c-4.13,0-7.5,3.36-7.5,7.5c0,4.14,3.37,7.5,7.5,7.5
		h37c0.68,0,1.35-0.09,2-0.27c0.65,0.18,1.33,0.27,2,0.27c4.14,0,7.5-3.36,7.5-7.5C191.29,323.36,187.93,320,183.79,320z"/>
	<path d="M461.36,230.56c-2.34-11.9-7.04-23.01-14-32.99c-0.42-0.61-0.93-1.15-1.51-1.61c-0.26-0.69-0.62-1.33-1.08-1.92
		c-1.43-1.85-3.59-2.92-5.94-2.92c-1.67,0-3.25,0.55-4.58,1.57c-1.58,1.23-2.6,2.99-2.85,4.98c-0.26,1.99,0.28,3.96,1.5,5.54
		c0.38,0.49,0.81,0.93,1.29,1.31c0.22,0.57,0.51,1.11,0.86,1.62c5.76,8.27,9.66,17.46,11.59,27.31c0.23,1.17,0.44,2.37,0.61,3.57
		c0.53,3.67,3.72,6.43,7.41,6.43c0.36,0,0.73-0.03,1.09-0.08c4.09-0.59,6.94-4.4,6.35-8.49
		C461.88,233.42,461.64,231.97,461.36,230.56z"/>
	<path d="M454.65,261.41c-0.64-0.18-1.31-0.27-1.98-0.27c-3.37,0-6.34,2.28-7.23,5.53c-0.16,0.59-0.25,1.2-0.26,1.81
		c-0.33,0.52-0.59,1.07-0.78,1.66c-3.12,9.49-8.09,18.1-14.78,25.6c-0.03,0.03-0.05,0.06-0.08,0.09c-0.79,0.89-1.63,1.77-2.49,2.64
		c-2.9,2.95-2.88,7.7,0.06,10.61c1.42,1.4,3.29,2.17,5.28,2.17c2.02,0,3.91-0.79,5.33-2.23c1-1.01,2.01-2.08,2.99-3.18
		c8.13-9.07,14.16-19.51,17.94-31.03c0.23-0.7,0.36-1.43,0.37-2.17c0.4-0.62,0.69-1.3,0.89-2.02c0.53-1.93,0.27-3.95-0.72-5.69
		C458.2,263.19,456.59,261.94,454.65,261.41z"/>
	<path d="M417.56,170.75c-1.26-0.69-2.56-1.36-3.88-2c-10.9-5.3-22.6-8.22-34.77-8.68c-0.74-0.03-1.47,0.05-2.18,0.23
		c-0.68-0.2-1.39-0.3-2.11-0.3c-4.13,0-7.5,3.36-7.5,7.5c0,4.14,3.37,7.5,7.5,7.5c0.64,0,1.28-0.08,1.89-0.24
		c0.59,0.17,1.21,0.27,1.83,0.29c10.07,0.39,19.76,2.81,28.79,7.19c1.08,0.53,2.16,1.09,3.21,1.66c1.1,0.61,2.35,0.93,3.6,0.93
		c2.74,0,5.26-1.49,6.58-3.89C422.51,177.31,421.18,172.74,417.56,170.75z"/>
	<path d="M405.08,314.35c-0.95,0-1.88,0.18-2.77,0.53c-0.57,0.23-1.12,0.53-1.61,0.88c-0.61,0.06-1.21,0.18-1.8,0.38
		c-7.51,2.56-15.38,3.86-23.4,3.86h-10.71c-4.13,0-7.5,3.36-7.5,7.5c0,4.14,3.37,7.5,7.5,7.5h3.84c0.05,0,0.11,0,0.16,0
		c0.01,0,0.01,0,0.02,0h6.71c9.66,0,19.15-1.57,28.22-4.66c0.71-0.24,1.37-0.58,1.97-1.01c0.73-0.06,1.46-0.23,2.15-0.51
		c1.86-0.74,3.32-2.16,4.11-4s0.82-3.88,0.08-5.74C410.91,316.21,408.17,314.35,405.08,314.35z"/>
	<path d="M331.79,320c-0.68,0-1.35,0.09-2,0.27c-0.65-0.18-1.32-0.27-2-0.27h-37c-4.13,0-7.5,3.36-7.5,7.5c0,4.14,3.37,7.5,7.5,7.5
		h37c0.68,0,1.35-0.09,2-0.27c0.65,0.18,1.32,0.27,2,0.27c4.14,0,7.5-3.36,7.5-7.5C339.29,323.36,335.93,320,331.79,320z"/>
	<path d="M349.12,167.5c0-4.14-3.36-7.5-7.5-7.5h-16.808C336.972,148.072,351,128.823,351,103.5c0-26.191-21.309-47.5-47.5-47.5
		S256,77.309,256,103.5c0,43.744,41.859,69.362,43.641,70.431c1.188,0.712,2.523,1.069,3.859,1.069c0.161,0,0.322-0.022,0.483-0.032
		c0.21,0.018,0.422,0.032,0.637,0.032h37C345.76,175,349.12,171.64,349.12,167.5z M288.77,145.146
		C276.979,132.056,271,118.043,271,103.5c0-17.92,14.58-32.5,32.5-32.5S336,85.58,336,103.5c0,14.543-5.979,28.556-17.77,41.646
		c-5.533,6.143-11.142,10.661-14.73,13.284C299.91,155.805,294.302,151.288,288.77,145.146z"/>
</g>
<g>
</g>
<g>
</g>
<g>
</g>
<g>
</g>
<g>
</g>
<g>
</g>
<g>
</g>
<g>
</g>
<g>
</g>
<g>
</g>
<g>
</g>
<g>
</g>
<g>
</g>
<g>
</g>
<g>
</g>
</svg>
